%TF.GenerationSoftware,KiCad,Pcbnew,10.0.1*%
%TF.CreationDate,2026-05-10T19:33:08+03:00*%
%TF.ProjectId,ESP32 NodeMCU DevKit Shield V1,45535033-3220-44e6-9f64-654d43552044,rev?*%
%TF.SameCoordinates,Original*%
%TF.FileFunction,Copper,L1,Top*%
%TF.FilePolarity,Positive*%
%FSLAX46Y46*%
G04 Gerber Fmt 4.6, Leading zero omitted, Abs format (unit mm)*
G04 Created by KiCad (PCBNEW 10.0.1) date 2026-05-10 19:33:08*
%MOMM*%
%LPD*%
G01*
G04 APERTURE LIST*
G04 Aperture macros list*
%AMRoundRect*
0 Rectangle with rounded corners*
0 $1 Rounding radius*
0 $2 $3 $4 $5 $6 $7 $8 $9 X,Y pos of 4 corners*
0 Add a 4 corners polygon primitive as box body*
4,1,4,$2,$3,$4,$5,$6,$7,$8,$9,$2,$3,0*
0 Add four circle primitives for the rounded corners*
1,1,$1+$1,$2,$3*
1,1,$1+$1,$4,$5*
1,1,$1+$1,$6,$7*
1,1,$1+$1,$8,$9*
0 Add four rect primitives between the rounded corners*
20,1,$1+$1,$2,$3,$4,$5,0*
20,1,$1+$1,$4,$5,$6,$7,0*
20,1,$1+$1,$6,$7,$8,$9,0*
20,1,$1+$1,$8,$9,$2,$3,0*%
G04 Aperture macros list end*
%TA.AperFunction,ComponentPad*%
%ADD10RoundRect,0.250001X-0.799999X-0.799999X0.799999X-0.799999X0.799999X0.799999X-0.799999X0.799999X0*%
%TD*%
%TA.AperFunction,ComponentPad*%
%ADD11C,2.100000*%
%TD*%
%TA.AperFunction,ComponentPad*%
%ADD12C,1.600000*%
%TD*%
%TA.AperFunction,ComponentPad*%
%ADD13RoundRect,0.250001X0.799999X0.799999X-0.799999X0.799999X-0.799999X-0.799999X0.799999X-0.799999X0*%
%TD*%
%TA.AperFunction,ComponentPad*%
%ADD14R,1.700000X1.700000*%
%TD*%
%TA.AperFunction,ComponentPad*%
%ADD15C,1.700000*%
%TD*%
%TA.AperFunction,SMDPad,CuDef*%
%ADD16RoundRect,0.375000X0.375000X-0.625000X0.375000X0.625000X-0.375000X0.625000X-0.375000X-0.625000X0*%
%TD*%
%TA.AperFunction,SMDPad,CuDef*%
%ADD17RoundRect,0.500000X1.400000X-0.500000X1.400000X0.500000X-1.400000X0.500000X-1.400000X-0.500000X0*%
%TD*%
%TA.AperFunction,SMDPad,CuDef*%
%ADD18RoundRect,0.175000X0.425000X-0.175000X0.425000X0.175000X-0.425000X0.175000X-0.425000X-0.175000X0*%
%TD*%
%TA.AperFunction,SMDPad,CuDef*%
%ADD19RoundRect,0.190000X-0.410000X0.190000X-0.410000X-0.190000X0.410000X-0.190000X0.410000X0.190000X0*%
%TD*%
%TA.AperFunction,SMDPad,CuDef*%
%ADD20RoundRect,0.200000X-0.400000X0.200000X-0.400000X-0.200000X0.400000X-0.200000X0.400000X0.200000X0*%
%TD*%
%TA.AperFunction,SMDPad,CuDef*%
%ADD21RoundRect,0.175000X-0.425000X0.175000X-0.425000X-0.175000X0.425000X-0.175000X0.425000X0.175000X0*%
%TD*%
%TA.AperFunction,SMDPad,CuDef*%
%ADD22RoundRect,0.190000X0.410000X-0.190000X0.410000X0.190000X-0.410000X0.190000X-0.410000X-0.190000X0*%
%TD*%
%TA.AperFunction,SMDPad,CuDef*%
%ADD23RoundRect,0.200000X0.400000X-0.200000X0.400000X0.200000X-0.400000X0.200000X-0.400000X-0.200000X0*%
%TD*%
%TA.AperFunction,ComponentPad*%
%ADD24O,1.700000X1.100000*%
%TD*%
%TA.AperFunction,ComponentPad*%
%ADD25RoundRect,0.250001X-0.799999X0.799999X-0.799999X-0.799999X0.799999X-0.799999X0.799999X0.799999X0*%
%TD*%
%TA.AperFunction,ComponentPad*%
%ADD26RoundRect,0.250000X-0.750000X-0.750000X0.750000X-0.750000X0.750000X0.750000X-0.750000X0.750000X0*%
%TD*%
%TA.AperFunction,ComponentPad*%
%ADD27C,2.000000*%
%TD*%
%TA.AperFunction,ComponentPad*%
%ADD28RoundRect,0.250000X-0.550000X-0.550000X0.550000X-0.550000X0.550000X0.550000X-0.550000X0.550000X0*%
%TD*%
%TA.AperFunction,ViaPad*%
%ADD29C,0.600000*%
%TD*%
%TA.AperFunction,Conductor*%
%ADD30C,0.200000*%
%TD*%
%TA.AperFunction,Conductor*%
%ADD31C,0.800000*%
%TD*%
%TA.AperFunction,Conductor*%
%ADD32C,0.400000*%
%TD*%
%TA.AperFunction,Conductor*%
%ADD33C,0.250000*%
%TD*%
G04 APERTURE END LIST*
D10*
%TO.P,J8,1,Pin_1_1*%
%TO.N,Net-(J3-Pin_3)*%
X85000000Y-58000000D03*
D11*
%TO.P,J8,2,Pin_2_2*%
%TO.N,Net-(J3-Pin_5)*%
X90080000Y-58000000D03*
%TD*%
D12*
%TO.P,R2,1*%
%TO.N,GND*%
X174860000Y-106050000D03*
%TO.P,R2,2*%
%TO.N,Net-(J31-CC1)*%
X185020000Y-106050000D03*
%TD*%
D10*
%TO.P,J16,1,Pin_1_1*%
%TO.N,/5V*%
X185320000Y-58000000D03*
D11*
%TO.P,J16,2,Pin_2_2*%
%TO.N,GND*%
X190400000Y-58000000D03*
%TD*%
D13*
%TO.P,J22,1,Pin_1_1*%
%TO.N,Net-(J2-Pin_21)*%
X140240000Y-122000000D03*
D11*
%TO.P,J22,2,Pin_2_2*%
%TO.N,Net-(J2-Pin_19)*%
X135160000Y-122000000D03*
%TD*%
D14*
%TO.P,J30,1,Pin_1_1*%
%TO.N,GND*%
X88540000Y-97380000D03*
D15*
%TO.P,J30,2,Pin_2_2*%
X88540000Y-99920000D03*
%TO.P,J30,3,Pin_3_3*%
X88540000Y-102460000D03*
%TO.P,J30,4,Pin_4_4*%
X88540000Y-105000000D03*
%TD*%
D13*
%TO.P,J25,1,Pin_1_1*%
%TO.N,Net-(J2-Pin_10)*%
X102620000Y-122000000D03*
D11*
%TO.P,J25,2,Pin_2_2*%
%TO.N,Net-(J2-Pin_7)*%
X97540000Y-122000000D03*
%TD*%
D14*
%TO.P,J2,1,Pin_1_1*%
%TO.N,unconnected-(J2-Pin_1-Pad1)*%
X115000000Y-102400000D03*
D15*
%TO.P,J2,2,Pin_2_2*%
%TO.N,unconnected-(J2-Pin_2-Pad2)*%
X115000000Y-104940000D03*
%TO.P,J2,3,Pin_3_3*%
%TO.N,Net-(J2-Pin_3)*%
X117540000Y-102400000D03*
%TO.P,J2,4,Pin_4_4*%
X117540000Y-104940000D03*
%TO.P,J2,5,Pin_5_5*%
%TO.N,Net-(J2-Pin_5)*%
X120080000Y-102400000D03*
%TO.P,J2,6,Pin_6_6*%
X120080000Y-104940000D03*
%TO.P,J2,7,Pin_7_7*%
%TO.N,Net-(J2-Pin_7)*%
X122620000Y-102400000D03*
%TO.P,J2,8,Pin_8_8*%
X122620000Y-104940000D03*
%TO.P,J2,9,Pin_9_9*%
%TO.N,Net-(J2-Pin_10)*%
X125160000Y-102400000D03*
%TO.P,J2,10,Pin_10_10*%
X125160000Y-104940000D03*
%TO.P,J2,11,Pin_11_11*%
%TO.N,Net-(J2-Pin_11)*%
X127700000Y-102400000D03*
%TO.P,J2,12,Pin_12_12*%
X127700000Y-104940000D03*
%TO.P,J2,13,Pin_13_13*%
%TO.N,Net-(J2-Pin_13)*%
X130240000Y-102400000D03*
%TO.P,J2,14,Pin_14_14*%
X130240000Y-104940000D03*
%TO.P,J2,15,Pin_15_15*%
%TO.N,Net-(J2-Pin_15)*%
X132780000Y-102400000D03*
%TO.P,J2,16,Pin_16_16*%
X132780000Y-104940000D03*
%TO.P,J2,17,Pin_17_17*%
%TO.N,Net-(J2-Pin_17)*%
X135320000Y-102400000D03*
%TO.P,J2,18,Pin_18_18*%
X135320000Y-104940000D03*
%TO.P,J2,19,Pin_19_19*%
%TO.N,Net-(J2-Pin_19)*%
X137860000Y-102400000D03*
%TO.P,J2,20,Pin_20_20*%
X137860000Y-104940000D03*
%TO.P,J2,21,Pin_21_21*%
%TO.N,Net-(J2-Pin_21)*%
X140400000Y-102400000D03*
%TO.P,J2,22,Pin_22_22*%
X140400000Y-104940000D03*
%TO.P,J2,23,Pin_23_23*%
%TO.N,Net-(J2-Pin_23)*%
X142940000Y-102400000D03*
%TO.P,J2,24,Pin_24_24*%
X142940000Y-104940000D03*
%TO.P,J2,25,Pin_25_25*%
%TO.N,Net-(J2-Pin_25)*%
X145480000Y-102400000D03*
%TO.P,J2,26,Pin_26_26*%
X145480000Y-104940000D03*
%TO.P,J2,27,Pin_27_27*%
%TO.N,GND*%
X148020000Y-102400000D03*
%TO.P,J2,28,Pin_28_28*%
X148020000Y-104940000D03*
%TO.P,J2,29,Pin_29_29*%
%TO.N,Net-(J2-Pin_29)*%
X150560000Y-102400000D03*
%TO.P,J2,30,Pin_30_30*%
X150560000Y-104940000D03*
%TO.P,J2,31,Pin_31_31*%
%TO.N,Net-(J2-Pin_31)*%
X153100000Y-102400000D03*
%TO.P,J2,32,Pin_32_32*%
X153100000Y-104940000D03*
%TO.P,J2,33,Pin_33_33*%
%TO.N,Net-(J19-Pin_2)*%
X155640000Y-102400000D03*
%TO.P,J2,34,Pin_34_34*%
X155640000Y-104940000D03*
%TO.P,J2,35,Pin_35_35*%
%TO.N,unconnected-(J2-Pin_35-Pad35)*%
X158180000Y-102400000D03*
%TO.P,J2,36,Pin_36_36*%
%TO.N,unconnected-(J2-Pin_36-Pad36)*%
X158180000Y-104940000D03*
%TO.P,J2,37,Pin_37_37*%
%TO.N,/5V*%
X160720000Y-102400000D03*
%TO.P,J2,38,Pin_38_38*%
X160720000Y-104940000D03*
%TO.P,J2,39,Pin_39_39*%
%TO.N,unconnected-(J2-Pin_39-Pad39)*%
X163260000Y-102400000D03*
%TO.P,J2,40,Pin_40_40*%
%TO.N,unconnected-(J2-Pin_40-Pad40)*%
X163260000Y-104940000D03*
%TD*%
D10*
%TO.P,J14,1,Pin_1_1*%
%TO.N,Net-(J14-Pin_1)*%
X160240000Y-58000000D03*
D11*
%TO.P,J14,2,Pin_2_2*%
%TO.N,Net-(J14-Pin_2)*%
X165320000Y-58000000D03*
%TD*%
D13*
%TO.P,J26,1,Pin_1_1*%
%TO.N,Net-(J2-Pin_5)*%
X90080000Y-122000000D03*
D11*
%TO.P,J26,2,Pin_2_2*%
%TO.N,Net-(J2-Pin_3)*%
X85000000Y-122000000D03*
%TD*%
D12*
%TO.P,R3,1*%
%TO.N,/+3.3V*%
X210000000Y-81000000D03*
%TO.P,R3,2*%
%TO.N,GND*%
X210000000Y-70840000D03*
%TD*%
D10*
%TO.P,J11,1,Pin_1_1*%
%TO.N,Net-(J11-Pin_1)*%
X122620000Y-58000000D03*
D11*
%TO.P,J11,2,Pin_2_2*%
%TO.N,Net-(J11-Pin_2)*%
X127700000Y-58000000D03*
%TD*%
D16*
%TO.P,U2,1,GND_1*%
%TO.N,GND*%
X194700000Y-81150000D03*
%TO.P,U2,2,VO_2*%
%TO.N,/+3.3V*%
X197000000Y-81150000D03*
D17*
X197000000Y-74850000D03*
D16*
%TO.P,U2,3,VI_3*%
%TO.N,/5V*%
X199300000Y-81150000D03*
%TD*%
D14*
%TO.P,J5,1,Pin_1_1*%
%TO.N,/+3.3V*%
X78540000Y-75000000D03*
D15*
%TO.P,J5,2,Pin_2_2*%
X78540000Y-77540000D03*
%TO.P,J5,3,Pin_3_3*%
X78540000Y-80080000D03*
%TO.P,J5,4,Pin_4_4*%
X78540000Y-82620000D03*
%TD*%
D10*
%TO.P,J15,1,Pin_1_1*%
%TO.N,Net-(J15-Pin_1)*%
X172780000Y-58000000D03*
D11*
%TO.P,J15,2,Pin_2_2*%
%TO.N,Net-(J15-Pin_2)*%
X177860000Y-58000000D03*
%TD*%
D18*
%TO.P,J31,A5,CC1_A5*%
%TO.N,Net-(J31-CC1)*%
X209420000Y-90500000D03*
D19*
%TO.P,J31,A9,VBUS_A9*%
%TO.N,/5V*%
X209420000Y-88480000D03*
D20*
%TO.P,J31,A12,GND_A12*%
%TO.N,GND*%
X209420000Y-87250000D03*
D21*
%TO.P,J31,B5,CC2_B5*%
%TO.N,Net-(J31-CC2)*%
X209420000Y-89500000D03*
D22*
%TO.P,J31,B9,VBUS_B9*%
%TO.N,/5V*%
X209420000Y-91520000D03*
D23*
%TO.P,J31,B12,GND_B12*%
%TO.N,GND*%
X209420000Y-92750000D03*
D24*
%TO.P,J31,SH,SHIELD_SH*%
X209500000Y-94320000D03*
X213300000Y-94320000D03*
X209500000Y-85680000D03*
X213300000Y-85680000D03*
%TD*%
D13*
%TO.P,J24,1,Pin_1_1*%
%TO.N,Net-(J2-Pin_13)*%
X115160000Y-122000000D03*
D11*
%TO.P,J24,2,Pin_2_2*%
%TO.N,Net-(J2-Pin_11)*%
X110080000Y-122000000D03*
%TD*%
D25*
%TO.P,J1,1,Pin_1_1*%
%TO.N,/5V*%
X210000000Y-100000000D03*
D11*
%TO.P,J1,2,Pin_2_2*%
%TO.N,GND*%
X210000000Y-105080000D03*
%TD*%
D13*
%TO.P,J21,1,Pin_1_1*%
%TO.N,Net-(J2-Pin_25)*%
X152780000Y-122000000D03*
D11*
%TO.P,J21,2,Pin_2_2*%
%TO.N,Net-(J2-Pin_23)*%
X147700000Y-122000000D03*
%TD*%
D10*
%TO.P,J10,1,Pin_1_1*%
%TO.N,Net-(J10-Pin_1)*%
X110080000Y-58000000D03*
D11*
%TO.P,J10,2,Pin_2_2*%
%TO.N,Net-(J10-Pin_2)*%
X115160000Y-58000000D03*
%TD*%
D14*
%TO.P,J6,1,Pin_1_1*%
%TO.N,GND*%
X75000000Y-97380000D03*
D15*
%TO.P,J6,2,Pin_2_2*%
X75000000Y-99920000D03*
%TO.P,J6,3,Pin_3_3*%
X75000000Y-102460000D03*
%TO.P,J6,4,Pin_4_4*%
X75000000Y-105000000D03*
%TD*%
D13*
%TO.P,J17,1,Pin_1_1*%
%TO.N,GND*%
X190400000Y-122000000D03*
D11*
%TO.P,J17,2,Pin_2_2*%
%TO.N,/5V*%
X185320000Y-122000000D03*
%TD*%
D14*
%TO.P,J7,1,Pin_1_1*%
%TO.N,GND*%
X92080000Y-97380000D03*
D15*
%TO.P,J7,2,Pin_2_2*%
X92080000Y-99920000D03*
%TO.P,J7,3,Pin_3_3*%
X92080000Y-102460000D03*
%TO.P,J7,4,Pin_4_4*%
X92080000Y-105000000D03*
%TD*%
D13*
%TO.P,J19,1,Pin_1_1*%
%TO.N,Net-(J19-Pin_1)*%
X177860000Y-122000000D03*
D11*
%TO.P,J19,2,Pin_2_2*%
%TO.N,Net-(J19-Pin_2)*%
X172780000Y-122000000D03*
%TD*%
D14*
%TO.P,J28,1,Pin_1_1*%
%TO.N,GND*%
X78540000Y-97380000D03*
D15*
%TO.P,J28,2,Pin_2_2*%
X78540000Y-99920000D03*
%TO.P,J28,3,Pin_3_3*%
X78540000Y-102460000D03*
%TO.P,J28,4,Pin_4_4*%
X78540000Y-105000000D03*
%TD*%
D10*
%TO.P,J13,1,Pin_1_1*%
%TO.N,Net-(J13-Pin_1)*%
X147700000Y-58000000D03*
D11*
%TO.P,J13,2,Pin_2_2*%
%TO.N,Net-(J13-Pin_2)*%
X152780000Y-58000000D03*
%TD*%
D13*
%TO.P,J20,1,Pin_1_1*%
%TO.N,Net-(J2-Pin_31)*%
X165320000Y-122000000D03*
D11*
%TO.P,J20,2,Pin_2_2*%
%TO.N,Net-(J2-Pin_29)*%
X160240000Y-122000000D03*
%TD*%
D10*
%TO.P,J9,1,Pin_1_1*%
%TO.N,Net-(J3-Pin_7)*%
X97540000Y-58000000D03*
D11*
%TO.P,J9,2,Pin_2_2*%
%TO.N,Net-(J3-Pin_10)*%
X102620000Y-58000000D03*
%TD*%
D26*
%TO.P,C1,1*%
%TO.N,/5V*%
X195000000Y-103500000D03*
D27*
%TO.P,C1,2*%
%TO.N,GND*%
X200000000Y-103500000D03*
%TD*%
D14*
%TO.P,J4,1,Pin_1_1*%
%TO.N,/5V*%
X88540000Y-75000000D03*
D15*
%TO.P,J4,2,Pin_2_2*%
X88540000Y-77540000D03*
%TO.P,J4,3,Pin_3_3*%
X88540000Y-80080000D03*
%TO.P,J4,4,Pin_4_4*%
X88540000Y-82620000D03*
%TD*%
D28*
%TO.P,C3,1*%
%TO.N,/5V*%
X183000000Y-78000000D03*
D12*
%TO.P,C3,2*%
%TO.N,GND*%
X188000000Y-78000000D03*
%TD*%
D14*
%TO.P,J3,1,Pin_1_1*%
%TO.N,GND*%
X115000000Y-77000000D03*
D15*
%TO.P,J3,2,Pin_2_2*%
X115000000Y-79540000D03*
%TO.P,J3,3,Pin_3_3*%
%TO.N,Net-(J3-Pin_3)*%
X117540000Y-77000000D03*
%TO.P,J3,4,Pin_4_4*%
X117540000Y-79540000D03*
%TO.P,J3,5,Pin_5_5*%
%TO.N,Net-(J3-Pin_5)*%
X120080000Y-77000000D03*
%TO.P,J3,6,Pin_6_6*%
X120080000Y-79540000D03*
%TO.P,J3,7,Pin_7_7*%
%TO.N,Net-(J3-Pin_7)*%
X122620000Y-77000000D03*
%TO.P,J3,8,Pin_8_8*%
X122620000Y-79540000D03*
%TO.P,J3,9,Pin_9_9*%
%TO.N,Net-(J3-Pin_10)*%
X125160000Y-77000000D03*
%TO.P,J3,10,Pin_10_10*%
X125160000Y-79540000D03*
%TO.P,J3,11,Pin_11_11*%
%TO.N,Net-(J10-Pin_1)*%
X127700000Y-77000000D03*
%TO.P,J3,12,Pin_12_12*%
X127700000Y-79540000D03*
%TO.P,J3,13,Pin_13_13*%
%TO.N,GND*%
X130240000Y-77000000D03*
%TO.P,J3,14,Pin_14_14*%
X130240000Y-79540000D03*
%TO.P,J3,15,Pin_15_15*%
%TO.N,Net-(J10-Pin_2)*%
X132780000Y-77000000D03*
%TO.P,J3,16,Pin_16_16*%
X132780000Y-79540000D03*
%TO.P,J3,17,Pin_17_17*%
%TO.N,Net-(J11-Pin_1)*%
X135320000Y-77000000D03*
%TO.P,J3,18,Pin_18_18*%
X135320000Y-79540000D03*
%TO.P,J3,19,Pin_19_19*%
%TO.N,Net-(J11-Pin_2)*%
X137860000Y-77000000D03*
%TO.P,J3,20,Pin_20_20*%
X137860000Y-79540000D03*
%TO.P,J3,21,Pin_21_21*%
%TO.N,Net-(J12-Pin_1)*%
X140400000Y-77000000D03*
%TO.P,J3,22,Pin_22_22*%
X140400000Y-79540000D03*
%TO.P,J3,23,Pin_23_23*%
%TO.N,Net-(J12-Pin_2)*%
X142940000Y-77000000D03*
%TO.P,J3,24,Pin_24_24*%
X142940000Y-79540000D03*
%TO.P,J3,25,Pin_25_25*%
%TO.N,Net-(J13-Pin_1)*%
X145480000Y-77000000D03*
%TO.P,J3,26,Pin_26_26*%
X145480000Y-79540000D03*
%TO.P,J3,27,Pin_27_27*%
%TO.N,Net-(J13-Pin_2)*%
X148020000Y-77000000D03*
%TO.P,J3,28,Pin_28_28*%
X148020000Y-79540000D03*
%TO.P,J3,29,Pin_29_29*%
%TO.N,Net-(J14-Pin_1)*%
X150560000Y-77000000D03*
%TO.P,J3,30,Pin_30_30*%
X150560000Y-79540000D03*
%TO.P,J3,31,Pin_31_31*%
%TO.N,Net-(J14-Pin_2)*%
X153100000Y-77000000D03*
%TO.P,J3,32,Pin_32_32*%
X153100000Y-79540000D03*
%TO.P,J3,33,Pin_33_33*%
%TO.N,Net-(J15-Pin_1)*%
X155640000Y-77000000D03*
%TO.P,J3,34,Pin_34_34*%
X155640000Y-79540000D03*
%TO.P,J3,35,Pin_35_35*%
%TO.N,Net-(J15-Pin_2)*%
X158180000Y-77000000D03*
%TO.P,J3,36,Pin_36_36*%
X158180000Y-79540000D03*
%TO.P,J3,37,Pin_37_37*%
%TO.N,Net-(J19-Pin_1)*%
X160720000Y-77000000D03*
%TO.P,J3,38,Pin_38_38*%
X160720000Y-79540000D03*
%TO.P,J3,39,Pin_39_39*%
%TO.N,unconnected-(J3-Pin_39-Pad39)*%
X163260000Y-77000000D03*
%TO.P,J3,40,Pin_40_40*%
%TO.N,unconnected-(J3-Pin_40-Pad40)*%
X163260000Y-79540000D03*
%TD*%
D14*
%TO.P,J29,1,Pin_1_1*%
%TO.N,/+3.3V*%
X75000000Y-75000000D03*
D15*
%TO.P,J29,2,Pin_2_2*%
X75000000Y-77540000D03*
%TO.P,J29,3,Pin_3_3*%
X75000000Y-80080000D03*
%TO.P,J29,4,Pin_4_4*%
X75000000Y-82620000D03*
%TD*%
D14*
%TO.P,J27,1,Pin_1_1*%
%TO.N,/5V*%
X92080000Y-75000000D03*
D15*
%TO.P,J27,2,Pin_2_2*%
X92080000Y-77540000D03*
%TO.P,J27,3,Pin_3_3*%
X92080000Y-80080000D03*
%TO.P,J27,4,Pin_4_4*%
X92080000Y-82620000D03*
%TD*%
D13*
%TO.P,J23,1,Pin_1_1*%
%TO.N,Net-(J2-Pin_17)*%
X127700000Y-122000000D03*
D11*
%TO.P,J23,2,Pin_2_2*%
%TO.N,Net-(J2-Pin_15)*%
X122620000Y-122000000D03*
%TD*%
D10*
%TO.P,J12,1,Pin_1_1*%
%TO.N,Net-(J12-Pin_1)*%
X135160000Y-58000000D03*
D11*
%TO.P,J12,2,Pin_2_2*%
%TO.N,Net-(J12-Pin_2)*%
X140240000Y-58000000D03*
%TD*%
D12*
%TO.P,R1,1*%
%TO.N,GND*%
X174860000Y-102000000D03*
%TO.P,R1,2*%
%TO.N,Net-(J31-CC2)*%
X185020000Y-102000000D03*
%TD*%
D28*
%TO.P,C2,1*%
%TO.N,/+3.3V*%
X194597349Y-69000000D03*
D12*
%TO.P,C2,2*%
%TO.N,GND*%
X199597349Y-69000000D03*
%TD*%
D29*
%TO.N,/+3.3V*%
X197000000Y-74850000D03*
%TD*%
%TO.N,Net-(J3-Pin_3)*%
D30*
X102850000Y-75850000D02*
X85000000Y-58000000D01*
X117540000Y-77000000D02*
X116390000Y-75850000D01*
X117540000Y-77000000D02*
X117540000Y-79540000D01*
X116390000Y-75850000D02*
X102850000Y-75850000D01*
%TO.N,Net-(J3-Pin_5)*%
X120080000Y-77000000D02*
X118530000Y-75450000D01*
X118530000Y-75450000D02*
X107530000Y-75450000D01*
X120080000Y-77000000D02*
X120080000Y-79540000D01*
X107530000Y-75450000D02*
X90080000Y-58000000D01*
%TO.N,GND*%
D31*
X210000000Y-105080000D02*
X213300000Y-101780000D01*
D32*
X131000000Y-82000000D02*
X131850000Y-81150000D01*
D31*
X78540000Y-102460000D02*
X78540000Y-99920000D01*
D32*
X148020000Y-97320000D02*
X131850000Y-81150000D01*
D31*
X92080000Y-99920000D02*
X92080000Y-97380000D01*
X209500000Y-85680000D02*
X213300000Y-85680000D01*
X75000000Y-102460000D02*
X75000000Y-105000000D01*
X190400000Y-113100000D02*
X200000000Y-103500000D01*
D32*
X208160000Y-69000000D02*
X210000000Y-70840000D01*
D31*
X88540000Y-97380000D02*
X78540000Y-97380000D01*
X200000000Y-103500000D02*
X201580000Y-105080000D01*
D32*
X199597349Y-69000000D02*
X208160000Y-69000000D01*
X148020000Y-102400000D02*
X148020000Y-97320000D01*
X174860000Y-106050000D02*
X174860000Y-102000000D01*
X169860000Y-97000000D02*
X153420000Y-97000000D01*
D33*
X148020000Y-104940000D02*
X148020000Y-102400000D01*
D31*
X188000000Y-78000000D02*
X188000000Y-60400000D01*
X88540000Y-99920000D02*
X88540000Y-102460000D01*
X191550000Y-78000000D02*
X194700000Y-81150000D01*
D32*
X174860000Y-102000000D02*
X169860000Y-97000000D01*
D31*
X92080000Y-102460000D02*
X92080000Y-99920000D01*
X188000000Y-60400000D02*
X190400000Y-58000000D01*
X75000000Y-97380000D02*
X75000000Y-99920000D01*
X75000000Y-99920000D02*
X75000000Y-102460000D01*
D32*
X117460000Y-82000000D02*
X131000000Y-82000000D01*
X130240000Y-79540000D02*
X130240000Y-77000000D01*
X131850000Y-81150000D02*
X130240000Y-79540000D01*
X115000000Y-79540000D02*
X115000000Y-77000000D01*
D31*
X88540000Y-105000000D02*
X92080000Y-105000000D01*
X201580000Y-105080000D02*
X210000000Y-105080000D01*
X190400000Y-122000000D02*
X190400000Y-113100000D01*
X78540000Y-97380000D02*
X75000000Y-97380000D01*
D30*
X209500000Y-92830000D02*
X209420000Y-92750000D01*
D31*
X78540000Y-105000000D02*
X78540000Y-102460000D01*
X88540000Y-102460000D02*
X88540000Y-105000000D01*
D32*
X115000000Y-79540000D02*
X117460000Y-82000000D01*
X153420000Y-97000000D02*
X148020000Y-102400000D01*
D31*
X209420000Y-87250000D02*
X209420000Y-85760000D01*
D32*
X213300000Y-85680000D02*
X213300000Y-74140000D01*
D31*
X92080000Y-105000000D02*
X92080000Y-102460000D01*
D30*
X210000000Y-105080000D02*
X210000000Y-105000000D01*
D31*
X92080000Y-97380000D02*
X88540000Y-97380000D01*
X209500000Y-94320000D02*
X209500000Y-92830000D01*
D30*
X209420000Y-85760000D02*
X209500000Y-85680000D01*
D31*
X188000000Y-78000000D02*
X191550000Y-78000000D01*
X213300000Y-101780000D02*
X213300000Y-94320000D01*
D32*
X213300000Y-74140000D02*
X210000000Y-70840000D01*
D31*
X75000000Y-105000000D02*
X78540000Y-105000000D01*
X78540000Y-99920000D02*
X88540000Y-99920000D01*
X213300000Y-85680000D02*
X213300000Y-94320000D01*
X209500000Y-94320000D02*
X213300000Y-94320000D01*
%TO.N,Net-(J31-CC1)*%
D33*
X198750000Y-90500000D02*
X209420000Y-90500000D01*
X185020000Y-106050000D02*
X185020000Y-104230000D01*
X185020000Y-104230000D02*
X198750000Y-90500000D01*
%TO.N,/5V*%
D31*
X185320000Y-58000000D02*
X185320000Y-75680000D01*
X190000000Y-85000000D02*
X199000000Y-85000000D01*
X192500000Y-103500000D02*
X185320000Y-110680000D01*
X206630000Y-88480000D02*
X209420000Y-88480000D01*
X183000000Y-78000000D02*
X190000000Y-85000000D01*
X210000000Y-100000000D02*
X198500000Y-100000000D01*
X209420000Y-91520000D02*
X211480000Y-91520000D01*
X185320000Y-110680000D02*
X185320000Y-122000000D01*
D33*
X209000000Y-100000000D02*
X210000000Y-100000000D01*
D31*
X207480000Y-91520000D02*
X206000000Y-93000000D01*
X195000000Y-103500000D02*
X192500000Y-103500000D01*
X209420000Y-91520000D02*
X207480000Y-91520000D01*
X212000000Y-89000000D02*
X211480000Y-88480000D01*
X212000000Y-91000000D02*
X212000000Y-89000000D01*
X206000000Y-93000000D02*
X206000000Y-97000000D01*
X185320000Y-75680000D02*
X183000000Y-78000000D01*
X199000000Y-85000000D02*
X199300000Y-84700000D01*
X206000000Y-97000000D02*
X209000000Y-100000000D01*
X211480000Y-91520000D02*
X212000000Y-91000000D01*
X199300000Y-84700000D02*
X199300000Y-81150000D01*
X199300000Y-81150000D02*
X206630000Y-88480000D01*
X198500000Y-100000000D02*
X195000000Y-103500000D01*
X211480000Y-88480000D02*
X209420000Y-88480000D01*
%TO.N,Net-(J2-Pin_21)*%
D30*
X140400000Y-104940000D02*
X140400000Y-121840000D01*
X140400000Y-104940000D02*
X140400000Y-102400000D01*
X140400000Y-121840000D02*
X140240000Y-122000000D01*
%TO.N,Net-(J2-Pin_19)*%
X135160000Y-107640000D02*
X135160000Y-122000000D01*
X137860000Y-104940000D02*
X135160000Y-107640000D01*
X137860000Y-104940000D02*
X137860000Y-102400000D01*
%TO.N,Net-(J2-Pin_10)*%
X108100000Y-122000000D02*
X102620000Y-122000000D01*
X125160000Y-104940000D02*
X125160000Y-102400000D01*
X125160000Y-104940000D02*
X108100000Y-122000000D01*
%TO.N,Net-(J2-Pin_7)*%
X120670000Y-106890000D02*
X112650000Y-106890000D01*
X112650000Y-106890000D02*
X97540000Y-122000000D01*
X122620000Y-104940000D02*
X122620000Y-102400000D01*
X122620000Y-104940000D02*
X120670000Y-106890000D01*
%TO.N,Net-(J2-Pin_3)*%
X117540000Y-104940000D02*
X117540000Y-102400000D01*
X116390000Y-106090000D02*
X100910000Y-106090000D01*
X100910000Y-106090000D02*
X85000000Y-122000000D01*
X117540000Y-104940000D02*
X116390000Y-106090000D01*
%TO.N,Net-(J2-Pin_5)*%
X120080000Y-104940000D02*
X118530000Y-106490000D01*
X105590000Y-106490000D02*
X90080000Y-122000000D01*
X120080000Y-104940000D02*
X120080000Y-102400000D01*
X118530000Y-106490000D02*
X105590000Y-106490000D01*
%TO.N,Net-(J2-Pin_11)*%
X127700000Y-104940000D02*
X127700000Y-102400000D01*
X127700000Y-104940000D02*
X110640000Y-122000000D01*
X110640000Y-122000000D02*
X110080000Y-122000000D01*
%TO.N,Net-(J2-Pin_13)*%
X130240000Y-104940000D02*
X130240000Y-102400000D01*
X130240000Y-104940000D02*
X115160000Y-120020000D01*
X115160000Y-120020000D02*
X115160000Y-122000000D01*
%TO.N,Net-(J2-Pin_15)*%
X122620000Y-115100000D02*
X122620000Y-122000000D01*
X132780000Y-104940000D02*
X132780000Y-102400000D01*
X132780000Y-104940000D02*
X122620000Y-115100000D01*
%TO.N,Net-(J2-Pin_17)*%
X127700000Y-112560000D02*
X127700000Y-122000000D01*
X135320000Y-104940000D02*
X127700000Y-112560000D01*
X135320000Y-104940000D02*
X135320000Y-102400000D01*
%TO.N,Net-(J2-Pin_23)*%
X142940000Y-104940000D02*
X147700000Y-109700000D01*
X142940000Y-104940000D02*
X142940000Y-102400000D01*
X147700000Y-109700000D02*
X147700000Y-122000000D01*
%TO.N,Net-(J2-Pin_25)*%
X145480000Y-104940000D02*
X145480000Y-102400000D01*
X145480000Y-104940000D02*
X152780000Y-112240000D01*
X152780000Y-112240000D02*
X152780000Y-122000000D01*
%TO.N,Net-(J2-Pin_29)*%
X150560000Y-104940000D02*
X150560000Y-102400000D01*
X160240000Y-114620000D02*
X160240000Y-122000000D01*
X150560000Y-104940000D02*
X160240000Y-114620000D01*
%TO.N,Net-(J2-Pin_31)*%
X153100000Y-104940000D02*
X153100000Y-102400000D01*
X153100000Y-104940000D02*
X165320000Y-117160000D01*
X165320000Y-117160000D02*
X165320000Y-122000000D01*
%TO.N,Net-(J19-Pin_2)*%
X155640000Y-104940000D02*
X172700000Y-122000000D01*
X155640000Y-104940000D02*
X155640000Y-102400000D01*
X172700000Y-122000000D02*
X172780000Y-122000000D01*
%TO.N,Net-(J14-Pin_1)*%
X150560000Y-77000000D02*
X160240000Y-67320000D01*
X160240000Y-67320000D02*
X160240000Y-58000000D01*
X150560000Y-77000000D02*
X150560000Y-79540000D01*
%TO.N,Net-(J14-Pin_2)*%
X153100000Y-77000000D02*
X153100000Y-79540000D01*
X153100000Y-77000000D02*
X165320000Y-64780000D01*
X165320000Y-64780000D02*
X165320000Y-58000000D01*
%TO.N,/+3.3V*%
D32*
X210000000Y-81000000D02*
X207000000Y-78000000D01*
X194597349Y-69000000D02*
X194597349Y-72447349D01*
X207000000Y-78000000D02*
X197000000Y-78000000D01*
X197000000Y-78000000D02*
X197000000Y-74850000D01*
X197000000Y-81150000D02*
X197000000Y-78000000D01*
X194597349Y-72447349D02*
X197000000Y-74850000D01*
%TO.N,Net-(J11-Pin_1)*%
D30*
X135320000Y-77000000D02*
X122620000Y-64300000D01*
X135320000Y-77000000D02*
X135320000Y-79540000D01*
X122620000Y-64300000D02*
X122620000Y-58000000D01*
%TO.N,Net-(J11-Pin_2)*%
X127700000Y-66840000D02*
X127700000Y-58000000D01*
X137860000Y-77000000D02*
X137860000Y-79540000D01*
X137860000Y-77000000D02*
X127700000Y-66840000D01*
%TO.N,Net-(J15-Pin_1)*%
X155640000Y-77000000D02*
X172780000Y-59860000D01*
X172780000Y-59860000D02*
X172780000Y-58000000D01*
X155640000Y-77000000D02*
X155640000Y-79540000D01*
%TO.N,Net-(J15-Pin_2)*%
X158180000Y-77000000D02*
X177180000Y-58000000D01*
X177180000Y-58000000D02*
X177860000Y-58000000D01*
X158180000Y-77000000D02*
X158180000Y-79540000D01*
%TO.N,Net-(J31-CC2)*%
D33*
X186250000Y-102000000D02*
X198750000Y-89500000D01*
X185020000Y-102000000D02*
X186250000Y-102000000D01*
X198750000Y-89500000D02*
X209420000Y-89500000D01*
%TO.N,Net-(J10-Pin_1)*%
D30*
X127700000Y-77000000D02*
X127700000Y-79540000D01*
X110080000Y-59380000D02*
X110080000Y-58000000D01*
X127700000Y-77000000D02*
X110080000Y-59380000D01*
%TO.N,Net-(J10-Pin_2)*%
X132780000Y-77000000D02*
X115160000Y-59380000D01*
X132780000Y-77000000D02*
X132780000Y-79540000D01*
X115160000Y-59380000D02*
X115160000Y-58000000D01*
%TO.N,Net-(J19-Pin_1)*%
X177860000Y-96680000D02*
X177860000Y-122000000D01*
X160720000Y-77000000D02*
X160720000Y-79540000D01*
X160720000Y-79540000D02*
X177860000Y-96680000D01*
%TO.N,Net-(J13-Pin_1)*%
X145480000Y-77000000D02*
X145480000Y-79540000D01*
X145480000Y-77000000D02*
X147700000Y-74780000D01*
X147700000Y-74780000D02*
X147700000Y-58000000D01*
%TO.N,Net-(J13-Pin_2)*%
X148020000Y-77000000D02*
X152780000Y-72240000D01*
X148020000Y-77000000D02*
X148020000Y-79540000D01*
X152780000Y-72240000D02*
X152780000Y-58000000D01*
%TO.N,Net-(J3-Pin_7)*%
X122620000Y-77000000D02*
X120670000Y-75050000D01*
X120670000Y-75050000D02*
X114590000Y-75050000D01*
X122620000Y-77000000D02*
X122620000Y-79540000D01*
X114590000Y-75050000D02*
X97540000Y-58000000D01*
%TO.N,Net-(J3-Pin_10)*%
X125160000Y-77000000D02*
X125160000Y-79540000D01*
X125160000Y-77000000D02*
X106160000Y-58000000D01*
X106160000Y-58000000D02*
X102620000Y-58000000D01*
%TO.N,Net-(J12-Pin_1)*%
X140400000Y-77000000D02*
X140400000Y-79540000D01*
X135160000Y-71760000D02*
X135160000Y-58000000D01*
X140400000Y-77000000D02*
X135160000Y-71760000D01*
%TO.N,Net-(J12-Pin_2)*%
X142940000Y-77000000D02*
X142940000Y-79540000D01*
X140240000Y-74300000D02*
X140240000Y-58000000D01*
X142940000Y-77000000D02*
X140240000Y-74300000D01*
%TD*%
M02*
