%TF.GenerationSoftware,KiCad,Pcbnew,10.0.2*%
%TF.CreationDate,2026-05-14T02:30:50+03:00*%
%TF.ProjectId,esp32_node_ devKit_shield_v1,65737033-325f-46e6-9f64-655f20646576,rev?*%
%TF.SameCoordinates,Original*%
%TF.FileFunction,Copper,L2,Bot*%
%TF.FilePolarity,Positive*%
%FSLAX46Y46*%
G04 Gerber Fmt 4.6, Leading zero omitted, Abs format (unit mm)*
G04 Created by KiCad (PCBNEW 10.0.2) date 2026-05-14 02:30:50*
%MOMM*%
%LPD*%
G01*
G04 APERTURE LIST*
G04 Aperture macros list*
%AMRoundRect*
0 Rectangle with rounded corners*
0 $1 Rounding radius*
0 $2 $3 $4 $5 $6 $7 $8 $9 X,Y pos of 4 corners*
0 Add a 4 corners polygon primitive as box body*
4,1,4,$2,$3,$4,$5,$6,$7,$8,$9,$2,$3,0*
0 Add four circle primitives for the rounded corners*
1,1,$1+$1,$2,$3*
1,1,$1+$1,$4,$5*
1,1,$1+$1,$6,$7*
1,1,$1+$1,$8,$9*
0 Add four rect primitives between the rounded corners*
20,1,$1+$1,$2,$3,$4,$5,0*
20,1,$1+$1,$4,$5,$6,$7,0*
20,1,$1+$1,$6,$7,$8,$9,0*
20,1,$1+$1,$8,$9,$2,$3,0*%
G04 Aperture macros list end*
%TA.AperFunction,ComponentPad*%
%ADD10RoundRect,0.250001X-0.799999X-0.799999X0.799999X-0.799999X0.799999X0.799999X-0.799999X0.799999X0*%
%TD*%
%TA.AperFunction,ComponentPad*%
%ADD11C,2.100000*%
%TD*%
%TA.AperFunction,ComponentPad*%
%ADD12C,1.600000*%
%TD*%
%TA.AperFunction,ComponentPad*%
%ADD13RoundRect,0.250001X0.799999X0.799999X-0.799999X0.799999X-0.799999X-0.799999X0.799999X-0.799999X0*%
%TD*%
%TA.AperFunction,ComponentPad*%
%ADD14R,1.700000X1.700000*%
%TD*%
%TA.AperFunction,ComponentPad*%
%ADD15C,1.700000*%
%TD*%
%TA.AperFunction,ComponentPad*%
%ADD16O,1.700000X1.100000*%
%TD*%
%TA.AperFunction,ComponentPad*%
%ADD17RoundRect,0.250001X-0.799999X0.799999X-0.799999X-0.799999X0.799999X-0.799999X0.799999X0.799999X0*%
%TD*%
%TA.AperFunction,ComponentPad*%
%ADD18RoundRect,0.250000X-0.750000X-0.750000X0.750000X-0.750000X0.750000X0.750000X-0.750000X0.750000X0*%
%TD*%
%TA.AperFunction,ComponentPad*%
%ADD19C,2.000000*%
%TD*%
%TA.AperFunction,ComponentPad*%
%ADD20RoundRect,0.250000X-0.550000X-0.550000X0.550000X-0.550000X0.550000X0.550000X-0.550000X0.550000X0*%
%TD*%
%TA.AperFunction,ViaPad*%
%ADD21C,0.600000*%
%TD*%
%TA.AperFunction,Conductor*%
%ADD22C,0.800000*%
%TD*%
%TA.AperFunction,Conductor*%
%ADD23C,0.200000*%
%TD*%
%TA.AperFunction,Conductor*%
%ADD24C,0.400000*%
%TD*%
G04 APERTURE END LIST*
D10*
%TO.P,J8,1,Pin_1_1*%
%TO.N,Net-(J3-Pin_3)*%
X85000000Y-58000000D03*
D11*
%TO.P,J8,2,Pin_2_2*%
%TO.N,Net-(J3-Pin_5)*%
X90080000Y-58000000D03*
%TD*%
D12*
%TO.P,R2,1*%
%TO.N,GND*%
X174860000Y-106050000D03*
%TO.P,R2,2*%
%TO.N,Net-(J31-CC1)*%
X185020000Y-106050000D03*
%TD*%
D10*
%TO.P,J16,1,Pin_1_1*%
%TO.N,/5V*%
X185320000Y-58000000D03*
D11*
%TO.P,J16,2,Pin_2_2*%
%TO.N,GND*%
X190400000Y-58000000D03*
%TD*%
D13*
%TO.P,J22,1,Pin_1_1*%
%TO.N,Net-(J18-Pin_10)*%
X140240000Y-122000000D03*
D11*
%TO.P,J22,2,Pin_2_2*%
%TO.N,Net-(J18-Pin_9)*%
X135160000Y-122000000D03*
%TD*%
D14*
%TO.P,J30,1,Pin_1_1*%
%TO.N,GND*%
X88540000Y-97380000D03*
D15*
%TO.P,J30,2,Pin_2_2*%
X88540000Y-99920000D03*
%TO.P,J30,3,Pin_3_3*%
X88540000Y-102460000D03*
%TO.P,J30,4,Pin_4_4*%
X88540000Y-105000000D03*
%TD*%
D13*
%TO.P,J25,1,Pin_1_1*%
%TO.N,Net-(J18-Pin_4)*%
X102620000Y-122000000D03*
D11*
%TO.P,J25,2,Pin_2_2*%
%TO.N,Net-(J18-Pin_3)*%
X97540000Y-122000000D03*
%TD*%
D10*
%TO.P,J14,1,Pin_1_1*%
%TO.N,Net-(J14-Pin_1)*%
X160240000Y-58000000D03*
D11*
%TO.P,J14,2,Pin_2_2*%
%TO.N,Net-(J14-Pin_2)*%
X165320000Y-58000000D03*
%TD*%
D13*
%TO.P,J26,1,Pin_1_1*%
%TO.N,Net-(J18-Pin_2)*%
X90080000Y-122000000D03*
D11*
%TO.P,J26,2,Pin_2_2*%
%TO.N,Net-(J18-Pin_1)*%
X85000000Y-122000000D03*
%TD*%
D12*
%TO.P,R3,1*%
%TO.N,/+3.3V*%
X210000000Y-81000000D03*
%TO.P,R3,2*%
%TO.N,GND*%
X210000000Y-70840000D03*
%TD*%
D10*
%TO.P,J11,1,Pin_1_1*%
%TO.N,Net-(J11-Pin_1)*%
X122620000Y-58000000D03*
D11*
%TO.P,J11,2,Pin_2_2*%
%TO.N,Net-(J11-Pin_2)*%
X127700000Y-58000000D03*
%TD*%
D14*
%TO.P,J5,1,Pin_1_1*%
%TO.N,/+3.3V*%
X78540000Y-75000000D03*
D15*
%TO.P,J5,2,Pin_2_2*%
X78540000Y-77540000D03*
%TO.P,J5,3,Pin_3_3*%
X78540000Y-80080000D03*
%TO.P,J5,4,Pin_4_4*%
X78540000Y-82620000D03*
%TD*%
D10*
%TO.P,J15,1,Pin_1_1*%
%TO.N,Net-(J15-Pin_1)*%
X172780000Y-58000000D03*
D11*
%TO.P,J15,2,Pin_2_2*%
%TO.N,Net-(J15-Pin_2)*%
X177860000Y-58000000D03*
%TD*%
D16*
%TO.P,J31,SH,SHIELD_SH*%
%TO.N,GND*%
X209500000Y-94320000D03*
X213300000Y-94320000D03*
X209500000Y-85680000D03*
X213300000Y-85680000D03*
%TD*%
D13*
%TO.P,J24,1,Pin_1_1*%
%TO.N,Net-(J18-Pin_6)*%
X115160000Y-122000000D03*
D11*
%TO.P,J24,2,Pin_2_2*%
%TO.N,Net-(J18-Pin_5)*%
X110080000Y-122000000D03*
%TD*%
D17*
%TO.P,J1,1,Pin_1_1*%
%TO.N,/5V*%
X210000000Y-100000000D03*
D11*
%TO.P,J1,2,Pin_2_2*%
%TO.N,GND*%
X210000000Y-105080000D03*
%TD*%
D13*
%TO.P,J21,1,Pin_1_1*%
%TO.N,Net-(J18-Pin_12)*%
X152780000Y-122000000D03*
D11*
%TO.P,J21,2,Pin_2_2*%
%TO.N,Net-(J18-Pin_11)*%
X147700000Y-122000000D03*
%TD*%
D10*
%TO.P,J10,1,Pin_1_1*%
%TO.N,Net-(J10-Pin_1)*%
X110080000Y-58000000D03*
D11*
%TO.P,J10,2,Pin_2_2*%
%TO.N,Net-(J10-Pin_2)*%
X115160000Y-58000000D03*
%TD*%
D14*
%TO.P,J32,1,Pin_1_1*%
%TO.N,Net-(J3-Pin_3)*%
X116290000Y-68000000D03*
D15*
%TO.P,J32,2,Pin_2_2*%
%TO.N,Net-(J3-Pin_5)*%
X118830000Y-68000000D03*
%TO.P,J32,3,Pin_3_3*%
%TO.N,Net-(J3-Pin_7)*%
X121370000Y-68000000D03*
%TO.P,J32,4,Pin_4_4*%
%TO.N,Net-(J3-Pin_10)*%
X123910000Y-68000000D03*
%TO.P,J32,5,Pin_5_5*%
%TO.N,Net-(J10-Pin_1)*%
X126450000Y-68000000D03*
%TO.P,J32,6,Pin_6_6*%
%TO.N,Net-(J10-Pin_2)*%
X128990000Y-68000000D03*
%TO.P,J32,7,Pin_7_7*%
%TO.N,Net-(J11-Pin_1)*%
X131530000Y-68000000D03*
%TO.P,J32,8,Pin_8_8*%
%TO.N,Net-(J11-Pin_2)*%
X134070000Y-68000000D03*
%TO.P,J32,9,Pin_9_9*%
%TO.N,Net-(J12-Pin_1)*%
X136610000Y-68000000D03*
%TO.P,J32,10,Pin_10_10*%
%TO.N,Net-(J12-Pin_2)*%
X139150000Y-68000000D03*
%TO.P,J32,11,Pin_11_11*%
%TO.N,Net-(J13-Pin_1)*%
X141690000Y-68000000D03*
%TO.P,J32,12,Pin_12_12*%
%TO.N,Net-(J13-Pin_2)*%
X144230000Y-68000000D03*
%TO.P,J32,13,Pin_13_13*%
%TO.N,Net-(J14-Pin_1)*%
X146770000Y-68000000D03*
%TO.P,J32,14,Pin_14_14*%
%TO.N,Net-(J14-Pin_2)*%
X149310000Y-68000000D03*
%TO.P,J32,15,Pin_15_15*%
%TO.N,Net-(J15-Pin_1)*%
X151850000Y-68000000D03*
%TO.P,J32,16,Pin_16_16*%
%TO.N,Net-(J15-Pin_2)*%
X154390000Y-68000000D03*
%TO.P,J32,17,Pin_17_17*%
%TO.N,/5V*%
X156930000Y-68000000D03*
%TO.P,J32,18,Pin_18_18*%
%TO.N,GND*%
X159470000Y-68000000D03*
%TD*%
D14*
%TO.P,J6,1,Pin_1_1*%
%TO.N,GND*%
X75000000Y-97380000D03*
D15*
%TO.P,J6,2,Pin_2_2*%
X75000000Y-99920000D03*
%TO.P,J6,3,Pin_3_3*%
X75000000Y-102460000D03*
%TO.P,J6,4,Pin_4_4*%
X75000000Y-105000000D03*
%TD*%
D13*
%TO.P,J17,1,Pin_1_1*%
%TO.N,GND*%
X190400000Y-122000000D03*
D11*
%TO.P,J17,2,Pin_2_2*%
%TO.N,/5V*%
X185320000Y-122000000D03*
%TD*%
D14*
%TO.P,J18,1,Pin_1_1*%
%TO.N,Net-(J18-Pin_1)*%
X116290000Y-112000000D03*
D15*
%TO.P,J18,2,Pin_2_2*%
%TO.N,Net-(J18-Pin_2)*%
X118830000Y-112000000D03*
%TO.P,J18,3,Pin_3_3*%
%TO.N,Net-(J18-Pin_3)*%
X121370000Y-112000000D03*
%TO.P,J18,4,Pin_4_4*%
%TO.N,Net-(J18-Pin_4)*%
X123910000Y-112000000D03*
%TO.P,J18,5,Pin_5_5*%
%TO.N,Net-(J18-Pin_5)*%
X126450000Y-112000000D03*
%TO.P,J18,6,Pin_6_6*%
%TO.N,Net-(J18-Pin_6)*%
X128990000Y-112000000D03*
%TO.P,J18,7,Pin_7_7*%
%TO.N,Net-(J18-Pin_7)*%
X131530000Y-112000000D03*
%TO.P,J18,8,Pin_8_8*%
%TO.N,Net-(J18-Pin_8)*%
X134070000Y-112000000D03*
%TO.P,J18,9,Pin_9_9*%
%TO.N,Net-(J18-Pin_9)*%
X136610000Y-112000000D03*
%TO.P,J18,10,Pin_10_10*%
%TO.N,Net-(J18-Pin_10)*%
X139150000Y-112000000D03*
%TO.P,J18,11,Pin_11_11*%
%TO.N,Net-(J18-Pin_11)*%
X141690000Y-112000000D03*
%TO.P,J18,12,Pin_12_12*%
%TO.N,Net-(J18-Pin_12)*%
X144230000Y-112000000D03*
%TO.P,J18,13,Pin_13_13*%
%TO.N,Net-(J18-Pin_13)*%
X146770000Y-112000000D03*
%TO.P,J18,14,Pin_14_14*%
%TO.N,Net-(J18-Pin_14)*%
X149310000Y-112000000D03*
%TO.P,J18,15,Pin_15_15*%
%TO.N,Net-(J18-Pin_15)*%
X151850000Y-112000000D03*
%TO.P,J18,16,Pin_16_16*%
%TO.N,Net-(J18-Pin_16)*%
X154390000Y-112000000D03*
%TO.P,J18,17,Pin_17_17*%
%TO.N,/5V*%
X156930000Y-112000000D03*
%TO.P,J18,18,Pin_18_18*%
%TO.N,GND*%
X159470000Y-112000000D03*
%TD*%
D14*
%TO.P,J7,1,Pin_1_1*%
%TO.N,GND*%
X92080000Y-97380000D03*
D15*
%TO.P,J7,2,Pin_2_2*%
X92080000Y-99920000D03*
%TO.P,J7,3,Pin_3_3*%
X92080000Y-102460000D03*
%TO.P,J7,4,Pin_4_4*%
X92080000Y-105000000D03*
%TD*%
D13*
%TO.P,J19,1,Pin_1_1*%
%TO.N,Net-(J18-Pin_16)*%
X177860000Y-122000000D03*
D11*
%TO.P,J19,2,Pin_2_2*%
%TO.N,Net-(J18-Pin_15)*%
X172780000Y-122000000D03*
%TD*%
D14*
%TO.P,J28,1,Pin_1_1*%
%TO.N,GND*%
X78540000Y-97380000D03*
D15*
%TO.P,J28,2,Pin_2_2*%
X78540000Y-99920000D03*
%TO.P,J28,3,Pin_3_3*%
X78540000Y-102460000D03*
%TO.P,J28,4,Pin_4_4*%
X78540000Y-105000000D03*
%TD*%
D10*
%TO.P,J13,1,Pin_1_1*%
%TO.N,Net-(J13-Pin_1)*%
X147700000Y-58000000D03*
D11*
%TO.P,J13,2,Pin_2_2*%
%TO.N,Net-(J13-Pin_2)*%
X152780000Y-58000000D03*
%TD*%
D13*
%TO.P,J20,1,Pin_1_1*%
%TO.N,Net-(J18-Pin_14)*%
X165320000Y-122000000D03*
D11*
%TO.P,J20,2,Pin_2_2*%
%TO.N,Net-(J18-Pin_13)*%
X160240000Y-122000000D03*
%TD*%
D10*
%TO.P,J9,1,Pin_1_1*%
%TO.N,Net-(J3-Pin_7)*%
X97540000Y-58000000D03*
D11*
%TO.P,J9,2,Pin_2_2*%
%TO.N,Net-(J3-Pin_10)*%
X102620000Y-58000000D03*
%TD*%
D14*
%TO.P,J2,1,Pin_1_1*%
%TO.N,unconnected-(J2-Pin_1-Pad1)*%
X115000000Y-102400000D03*
D15*
%TO.P,J2,2,Pin_2_2*%
%TO.N,unconnected-(J2-Pin_2-Pad2)*%
X115000000Y-104940000D03*
%TO.P,J2,3,Pin_3_3*%
%TO.N,Net-(J18-Pin_1)*%
X117540000Y-102400000D03*
%TO.P,J2,4,Pin_4_4*%
X117540000Y-104940000D03*
%TO.P,J2,5,Pin_5_5*%
%TO.N,Net-(J18-Pin_2)*%
X120080000Y-102400000D03*
%TO.P,J2,6,Pin_6_6*%
X120080000Y-104940000D03*
%TO.P,J2,7,Pin_7_7*%
%TO.N,Net-(J18-Pin_3)*%
X122620000Y-102400000D03*
%TO.P,J2,8,Pin_8_8*%
X122620000Y-104940000D03*
%TO.P,J2,9,Pin_9_9*%
%TO.N,Net-(J18-Pin_4)*%
X125160000Y-102400000D03*
%TO.P,J2,10,Pin_10_10*%
X125160000Y-104940000D03*
%TO.P,J2,11,Pin_11_11*%
%TO.N,Net-(J18-Pin_5)*%
X127700000Y-102400000D03*
%TO.P,J2,12,Pin_12_12*%
X127700000Y-104940000D03*
%TO.P,J2,13,Pin_13_13*%
%TO.N,Net-(J18-Pin_6)*%
X130240000Y-102400000D03*
%TO.P,J2,14,Pin_14_14*%
X130240000Y-104940000D03*
%TO.P,J2,15,Pin_15_15*%
%TO.N,Net-(J18-Pin_7)*%
X132780000Y-102400000D03*
%TO.P,J2,16,Pin_16_16*%
X132780000Y-104940000D03*
%TO.P,J2,17,Pin_17_17*%
%TO.N,Net-(J18-Pin_8)*%
X135320000Y-102400000D03*
%TO.P,J2,18,Pin_18_18*%
X135320000Y-104940000D03*
%TO.P,J2,19,Pin_19_19*%
%TO.N,Net-(J18-Pin_9)*%
X137860000Y-102400000D03*
%TO.P,J2,20,Pin_20_20*%
X137860000Y-104940000D03*
%TO.P,J2,21,Pin_21_21*%
%TO.N,Net-(J18-Pin_10)*%
X140400000Y-102400000D03*
%TO.P,J2,22,Pin_22_22*%
X140400000Y-104940000D03*
%TO.P,J2,23,Pin_23_23*%
%TO.N,Net-(J18-Pin_11)*%
X142940000Y-102400000D03*
%TO.P,J2,24,Pin_24_24*%
X142940000Y-104940000D03*
%TO.P,J2,25,Pin_25_25*%
%TO.N,Net-(J18-Pin_12)*%
X145480000Y-102400000D03*
%TO.P,J2,26,Pin_26_26*%
X145480000Y-104940000D03*
%TO.P,J2,27,Pin_27_27*%
%TO.N,GND*%
X148020000Y-102400000D03*
%TO.P,J2,28,Pin_28_28*%
X148020000Y-104940000D03*
%TO.P,J2,29,Pin_29_29*%
%TO.N,Net-(J18-Pin_13)*%
X150560000Y-102400000D03*
%TO.P,J2,30,Pin_30_30*%
X150560000Y-104940000D03*
%TO.P,J2,31,Pin_31_31*%
%TO.N,Net-(J18-Pin_14)*%
X153100000Y-102400000D03*
%TO.P,J2,32,Pin_32_32*%
X153100000Y-104940000D03*
%TO.P,J2,33,Pin_33_33*%
%TO.N,Net-(J18-Pin_15)*%
X155640000Y-102400000D03*
%TO.P,J2,34,Pin_34_34*%
X155640000Y-104940000D03*
%TO.P,J2,35,Pin_35_35*%
%TO.N,unconnected-(J2-Pin_35-Pad35)*%
X158180000Y-102400000D03*
%TO.P,J2,36,Pin_36_36*%
%TO.N,unconnected-(J2-Pin_36-Pad36)*%
X158180000Y-104940000D03*
%TO.P,J2,37,Pin_37_37*%
%TO.N,/5V*%
X160720000Y-102400000D03*
%TO.P,J2,38,Pin_38_38*%
X160720000Y-104940000D03*
%TD*%
D18*
%TO.P,C1,1*%
%TO.N,/5V*%
X195000000Y-103500000D03*
D19*
%TO.P,C1,2*%
%TO.N,GND*%
X200000000Y-103500000D03*
%TD*%
D14*
%TO.P,J4,1,Pin_1_1*%
%TO.N,/5V*%
X88540000Y-75000000D03*
D15*
%TO.P,J4,2,Pin_2_2*%
X88540000Y-77540000D03*
%TO.P,J4,3,Pin_3_3*%
X88540000Y-80080000D03*
%TO.P,J4,4,Pin_4_4*%
X88540000Y-82620000D03*
%TD*%
D20*
%TO.P,C3,1*%
%TO.N,/5V*%
X183000000Y-78000000D03*
D12*
%TO.P,C3,2*%
%TO.N,GND*%
X188000000Y-78000000D03*
%TD*%
D14*
%TO.P,J3,1,Pin_1_1*%
%TO.N,GND*%
X115000000Y-77000000D03*
D15*
%TO.P,J3,2,Pin_2_2*%
X115000000Y-79540000D03*
%TO.P,J3,3,Pin_3_3*%
%TO.N,Net-(J3-Pin_3)*%
X117540000Y-77000000D03*
%TO.P,J3,4,Pin_4_4*%
X117540000Y-79540000D03*
%TO.P,J3,5,Pin_5_5*%
%TO.N,Net-(J3-Pin_5)*%
X120080000Y-77000000D03*
%TO.P,J3,6,Pin_6_6*%
X120080000Y-79540000D03*
%TO.P,J3,7,Pin_7_7*%
%TO.N,Net-(J3-Pin_7)*%
X122620000Y-77000000D03*
%TO.P,J3,8,Pin_8_8*%
X122620000Y-79540000D03*
%TO.P,J3,9,Pin_9_9*%
%TO.N,Net-(J3-Pin_10)*%
X125160000Y-77000000D03*
%TO.P,J3,10,Pin_10_10*%
X125160000Y-79540000D03*
%TO.P,J3,11,Pin_11_11*%
%TO.N,Net-(J10-Pin_1)*%
X127700000Y-77000000D03*
%TO.P,J3,12,Pin_12_12*%
X127700000Y-79540000D03*
%TO.P,J3,13,Pin_13_13*%
%TO.N,GND*%
X130240000Y-77000000D03*
%TO.P,J3,14,Pin_14_14*%
X130240000Y-79540000D03*
%TO.P,J3,15,Pin_15_15*%
%TO.N,Net-(J10-Pin_2)*%
X132780000Y-77000000D03*
%TO.P,J3,16,Pin_16_16*%
X132780000Y-79540000D03*
%TO.P,J3,17,Pin_17_17*%
%TO.N,Net-(J11-Pin_1)*%
X135320000Y-77000000D03*
%TO.P,J3,18,Pin_18_18*%
X135320000Y-79540000D03*
%TO.P,J3,19,Pin_19_19*%
%TO.N,Net-(J11-Pin_2)*%
X137860000Y-77000000D03*
%TO.P,J3,20,Pin_20_20*%
X137860000Y-79540000D03*
%TO.P,J3,21,Pin_21_21*%
%TO.N,Net-(J12-Pin_1)*%
X140400000Y-77000000D03*
%TO.P,J3,22,Pin_22_22*%
X140400000Y-79540000D03*
%TO.P,J3,23,Pin_23_23*%
%TO.N,Net-(J12-Pin_2)*%
X142940000Y-77000000D03*
%TO.P,J3,24,Pin_24_24*%
X142940000Y-79540000D03*
%TO.P,J3,25,Pin_25_25*%
%TO.N,Net-(J13-Pin_1)*%
X145480000Y-77000000D03*
%TO.P,J3,26,Pin_26_26*%
X145480000Y-79540000D03*
%TO.P,J3,27,Pin_27_27*%
%TO.N,Net-(J13-Pin_2)*%
X148020000Y-77000000D03*
%TO.P,J3,28,Pin_28_28*%
X148020000Y-79540000D03*
%TO.P,J3,29,Pin_29_29*%
%TO.N,Net-(J14-Pin_1)*%
X150560000Y-77000000D03*
%TO.P,J3,30,Pin_30_30*%
X150560000Y-79540000D03*
%TO.P,J3,31,Pin_31_31*%
%TO.N,Net-(J14-Pin_2)*%
X153100000Y-77000000D03*
%TO.P,J3,32,Pin_32_32*%
X153100000Y-79540000D03*
%TO.P,J3,33,Pin_33_33*%
%TO.N,Net-(J15-Pin_1)*%
X155640000Y-77000000D03*
%TO.P,J3,34,Pin_34_34*%
X155640000Y-79540000D03*
%TO.P,J3,35,Pin_35_35*%
%TO.N,Net-(J15-Pin_2)*%
X158180000Y-77000000D03*
%TO.P,J3,36,Pin_36_36*%
X158180000Y-79540000D03*
%TO.P,J3,37,Pin_37_37*%
%TO.N,Net-(J18-Pin_16)*%
X160720000Y-77000000D03*
%TO.P,J3,38,Pin_38_38*%
X160720000Y-79540000D03*
%TD*%
D14*
%TO.P,J29,1,Pin_1_1*%
%TO.N,/+3.3V*%
X75000000Y-75000000D03*
D15*
%TO.P,J29,2,Pin_2_2*%
X75000000Y-77540000D03*
%TO.P,J29,3,Pin_3_3*%
X75000000Y-80080000D03*
%TO.P,J29,4,Pin_4_4*%
X75000000Y-82620000D03*
%TD*%
D14*
%TO.P,J27,1,Pin_1_1*%
%TO.N,/5V*%
X92080000Y-75000000D03*
D15*
%TO.P,J27,2,Pin_2_2*%
X92080000Y-77540000D03*
%TO.P,J27,3,Pin_3_3*%
X92080000Y-80080000D03*
%TO.P,J27,4,Pin_4_4*%
X92080000Y-82620000D03*
%TD*%
D13*
%TO.P,J23,1,Pin_1_1*%
%TO.N,Net-(J18-Pin_8)*%
X127700000Y-122000000D03*
D11*
%TO.P,J23,2,Pin_2_2*%
%TO.N,Net-(J18-Pin_7)*%
X122620000Y-122000000D03*
%TD*%
D10*
%TO.P,J12,1,Pin_1_1*%
%TO.N,Net-(J12-Pin_1)*%
X135160000Y-58000000D03*
D11*
%TO.P,J12,2,Pin_2_2*%
%TO.N,Net-(J12-Pin_2)*%
X140240000Y-58000000D03*
%TD*%
D12*
%TO.P,R1,1*%
%TO.N,GND*%
X174860000Y-102000000D03*
%TO.P,R1,2*%
%TO.N,Net-(J31-CC2)*%
X185020000Y-102000000D03*
%TD*%
D20*
%TO.P,C2,1*%
%TO.N,/+3.3V*%
X194597349Y-69000000D03*
D12*
%TO.P,C2,2*%
%TO.N,GND*%
X199597349Y-69000000D03*
%TD*%
D21*
%TO.N,/+3.3V*%
X197000000Y-74850000D03*
%TD*%
%TO.N,GND*%
D22*
X174860000Y-106050000D02*
X180190000Y-106050000D01*
X190400000Y-66600000D02*
X189000000Y-68000000D01*
X189000000Y-68000000D02*
X159470000Y-68000000D01*
X209500000Y-94320000D02*
X204320000Y-94320000D01*
D23*
X115000000Y-79540000D02*
X114460000Y-79540000D01*
D22*
X180190000Y-106050000D02*
X190400000Y-116260000D01*
X204320000Y-94320000D02*
X188000000Y-78000000D01*
X190400000Y-58000000D02*
X190400000Y-66600000D01*
D24*
X190400000Y-122000000D02*
X190400000Y-116260000D01*
%TO.N,/5V*%
D22*
X100460000Y-91000000D02*
X170000000Y-91000000D01*
X92080000Y-77540000D02*
X88540000Y-77540000D01*
X177100000Y-110000000D02*
X165780000Y-110000000D01*
X88540000Y-80080000D02*
X92080000Y-80080000D01*
X92080000Y-82620000D02*
X88540000Y-82620000D01*
X185320000Y-122000000D02*
X185320000Y-118220000D01*
X160720000Y-104940000D02*
X160720000Y-102400000D01*
X165780000Y-110000000D02*
X160720000Y-104940000D01*
X88540000Y-77540000D02*
X88540000Y-75000000D01*
X88540000Y-75000000D02*
X92080000Y-75000000D01*
X92080000Y-80080000D02*
X92080000Y-77540000D01*
X170000000Y-91000000D02*
X183000000Y-78000000D01*
X92080000Y-82620000D02*
X100460000Y-91000000D01*
X185320000Y-118220000D02*
X177100000Y-110000000D01*
X88540000Y-82620000D02*
X88540000Y-80080000D01*
%TO.N,/+3.3V*%
D24*
X191000000Y-72000000D02*
X81540000Y-72000000D01*
X78540000Y-77540000D02*
X78540000Y-80080000D01*
X75000000Y-82620000D02*
X78540000Y-82620000D01*
X75000000Y-80080000D02*
X75000000Y-82620000D01*
X75000000Y-75000000D02*
X75000000Y-77540000D01*
X78540000Y-80080000D02*
X75000000Y-80080000D01*
X193850000Y-74850000D02*
X191000000Y-72000000D01*
X75000000Y-77540000D02*
X78540000Y-77540000D01*
X197000000Y-74850000D02*
X193850000Y-74850000D01*
X78540000Y-75000000D02*
X75000000Y-75000000D01*
X81540000Y-72000000D02*
X78540000Y-75000000D01*
%TD*%
M02*
