M48
; DRILL file KiCad 10.0.2 date 2026-05-14T17:16:40
; FORMAT={-:-/ absolute / metric / decimal}
; #@! TF.CreationDate,2026-05-14T17:16:40+03:00
; #@! TF.GenerationSoftware,Kicad,Pcbnew,10.0.2
; #@! TF.FileFunction,Plated,1,2,PTH
FMAT,2
METRIC
; #@! TA.AperFunction,Plated,PTH,ViaDrill
T1C0.300
; #@! TA.AperFunction,Plated,PTH,ComponentDrill
T2C0.600
; #@! TA.AperFunction,Plated,PTH,ComponentDrill
T3C0.800
; #@! TA.AperFunction,Plated,PTH,ComponentDrill
T4C0.900
; #@! TA.AperFunction,Plated,PTH,ComponentDrill
T5C1.000
; #@! TA.AperFunction,Plated,PTH,ComponentDrill
T6C1.100
%
G90
G05
T1
X197.0Y-74.85
T3
X174.86Y-102.0
X174.86Y-106.05
X183.0Y-78.0
X185.02Y-102.0
X185.02Y-106.05
X188.0Y-78.0
X194.597Y-69.0
X199.597Y-69.0
X201.0Y-114.0
X210.0Y-70.84
X210.0Y-81.0
X211.16Y-114.0
T4
X198.5Y-122.0
X201.04Y-122.0
T5
X75.0Y-75.0
X75.0Y-77.54
X75.0Y-80.08
X75.0Y-82.62
X75.0Y-97.38
X75.0Y-99.92
X75.0Y-102.46
X75.0Y-105.0
X78.54Y-75.0
X78.54Y-77.54
X78.54Y-80.08
X78.54Y-82.62
X78.54Y-97.38
X78.54Y-99.92
X78.54Y-102.46
X78.54Y-105.0
X88.54Y-75.0
X88.54Y-77.54
X88.54Y-80.08
X88.54Y-82.62
X88.54Y-97.38
X88.54Y-99.92
X88.54Y-102.46
X88.54Y-105.0
X92.08Y-75.0
X92.08Y-77.54
X92.08Y-80.08
X92.08Y-82.62
X92.08Y-97.38
X92.08Y-99.92
X92.08Y-102.46
X92.08Y-105.0
X115.0Y-77.0
X115.0Y-79.54
X115.0Y-102.4
X115.0Y-104.94
X116.29Y-68.0
X116.29Y-112.0
X117.54Y-77.0
X117.54Y-79.54
X117.54Y-102.4
X117.54Y-104.94
X118.83Y-68.0
X118.83Y-112.0
X120.08Y-77.0
X120.08Y-79.54
X120.08Y-102.4
X120.08Y-104.94
X121.37Y-68.0
X121.37Y-112.0
X122.62Y-77.0
X122.62Y-79.54
X122.62Y-102.4
X122.62Y-104.94
X123.91Y-68.0
X123.91Y-112.0
X125.16Y-77.0
X125.16Y-79.54
X125.16Y-102.4
X125.16Y-104.94
X126.45Y-68.0
X126.45Y-112.0
X127.7Y-77.0
X127.7Y-79.54
X127.7Y-102.4
X127.7Y-104.94
X128.99Y-68.0
X128.99Y-112.0
X130.24Y-77.0
X130.24Y-79.54
X130.24Y-102.4
X130.24Y-104.94
X131.53Y-68.0
X131.53Y-112.0
X132.78Y-77.0
X132.78Y-79.54
X132.78Y-102.4
X132.78Y-104.94
X134.07Y-68.0
X134.07Y-112.0
X135.32Y-77.0
X135.32Y-79.54
X135.32Y-102.4
X135.32Y-104.94
X136.61Y-68.0
X136.61Y-112.0
X137.86Y-77.0
X137.86Y-79.54
X137.86Y-102.4
X137.86Y-104.94
X139.15Y-68.0
X139.15Y-112.0
X140.4Y-77.0
X140.4Y-79.54
X140.4Y-102.4
X140.4Y-104.94
X141.69Y-68.0
X141.69Y-112.0
X142.94Y-77.0
X142.94Y-79.54
X142.94Y-102.4
X142.94Y-104.94
X144.23Y-68.0
X144.23Y-112.0
X145.48Y-77.0
X145.48Y-79.54
X145.48Y-102.4
X145.48Y-104.94
X146.77Y-68.0
X146.77Y-112.0
X148.02Y-77.0
X148.02Y-79.54
X148.02Y-102.4
X148.02Y-104.94
X149.31Y-68.0
X149.31Y-112.0
X150.56Y-77.0
X150.56Y-79.54
X150.56Y-102.4
X150.56Y-104.94
X151.85Y-68.0
X151.85Y-112.0
X153.1Y-77.0
X153.1Y-79.54
X153.1Y-102.4
X153.1Y-104.94
X154.39Y-68.0
X154.39Y-112.0
X155.64Y-77.0
X155.64Y-79.54
X155.64Y-102.4
X155.64Y-104.94
X156.93Y-68.0
X156.93Y-112.0
X158.18Y-77.0
X158.18Y-79.54
X158.18Y-102.4
X158.18Y-104.94
X159.47Y-68.0
X159.47Y-112.0
X160.72Y-77.0
X160.72Y-79.54
X160.72Y-102.4
X160.72Y-104.94
X195.0Y-103.5
X200.0Y-103.5
T6
X85.0Y-58.0
X85.0Y-122.0
X90.08Y-58.0
X90.08Y-122.0
X97.54Y-58.0
X97.54Y-122.0
X102.62Y-58.0
X102.62Y-122.0
X110.08Y-58.0
X110.08Y-122.0
X115.16Y-58.0
X115.16Y-122.0
X122.62Y-58.0
X122.62Y-122.0
X127.7Y-58.0
X127.7Y-122.0
X135.16Y-58.0
X135.16Y-122.0
X140.24Y-58.0
X140.24Y-122.0
X147.7Y-58.0
X147.7Y-122.0
X152.78Y-58.0
X152.78Y-122.0
X160.24Y-58.0
X160.24Y-122.0
X165.32Y-58.0
X165.32Y-122.0
X172.78Y-58.0
X172.78Y-122.0
X177.86Y-58.0
X177.86Y-122.0
X185.32Y-58.0
X185.32Y-122.0
X190.4Y-58.0
X190.4Y-122.0
X210.0Y-100.0
X210.0Y-105.08
T2
G00X209.2Y-85.68
M15
G01X209.8Y-85.68
M16
G05
G00X209.2Y-94.32
M15
G01X209.8Y-94.32
M16
G05
G00X213.0Y-85.68
M15
G01X213.6Y-85.68
M16
G05
G00X213.0Y-94.32
M15
G01X213.6Y-94.32
M16
G05
M30
